<svg width="14" height="20" fill="none" xmlns="http://www.w3.org/2000/svg"><path d="M11.254 5.194a.586.586 0 00-1.087.303c0 .715-.582 1.297-1.297 1.297a1.298 1.298 0 01-1.297-1.297V.586a.586.586 0 00-1-.414c-.066.065-1.629 1.637-3.211 4.012-.934 1.4-1.679 2.788-2.215 4.127C.47 10.008.125 11.631.125 13.138A6.87 6.87 0 006.987 20a6.87 6.87 0 006.862-6.862c0-2.422-.873-5.095-2.595-7.944zm-.357 7.792a.586.586 0 11-1.172 0V11.89l-2.918 2.918a.586.586 0 01-.828 0l-1.361-1.361-.917.917a.586.586 0 11-.829-.829l1.332-1.331a.586.586 0 01.828 0l1.361 1.36 2.503-2.503H7.8a.586.586 0 110-1.172h2.511c.323 0 .586.263.586.586v2.51z" fill="#D9D9D9"/></svg>