<svg width="15" height="14" fill="none" xmlns="http://www.w3.org/2000/svg"><path d="M.894 7.13v5.36c0 .493.4.894.893.894h4.467V7.13H.894zm12.507-3.574h-2.826c.202-.138.377-.276.498-.399a1.867 1.867 0 000-2.628c-.7-.706-1.92-.704-2.62 0-.388.388-1.416 1.97-1.274 3.027h-.064C7.256 2.5 6.23.917 5.842.53c-.7-.704-1.92-.704-2.62 0a1.87 1.87 0 00-.001 2.628c.122.123.296.261.5.4H.892A.895.895 0 000 4.45v1.34c0 .247.2.447.447.447h5.807V4.45H8.04v1.787h5.807c.246 0 .447-.2.447-.447V4.45c0-.492-.4-.894-.894-.894zm-7.2-.029s-.037.03-.165.03c-.617 0-1.796-.642-2.18-1.03a.974.974 0 010-1.368.949.949 0 011.353 0c.602.605 1.2 2.153.992 2.368zm2.057.03c-.127 0-.165-.03-.165-.03-.208-.215.39-1.763.993-2.368a.974.974 0 011.354 0 .973.973 0 010 1.368c-.385.388-1.564 1.03-2.182 1.03zM8.041 7.13v6.254h4.467c.493 0 .894-.4.894-.894V7.13H8.04z" fill="#BED8E8"/></svg>