<svg width="16" height="16" fill="none" xmlns="http://www.w3.org/2000/svg"><path d="M8 1a7 7 0 00-7 7c0 1.197.311 2.364.902 3.406l-.855 2.567a.782.782 0 00.186.793c.231.208.518.296.794.187l2.566-.856A6.887 6.887 0 008 14.999a7 7 0 007-7A6.99 6.99 0 008 1zM4.889 8.777A.79.79 0 014.11 8a.78.78 0 01.778-.778.77.77 0 01.778.778.78.78 0 01-.778.777zm3.111 0A.79.79 0 017.222 8 .78.78 0 018 7.222.77.77 0 018.778 8 .78.78 0 018 8.777zm3.111 0A.79.79 0 0110.333 8a.78.78 0 01.778-.778.77.77 0 01.778.778.78.78 0 01-.778.777z" fill="#fff"/></svg>