<svg width="16" height="16" fill="none" xmlns="http://www.w3.org/2000/svg"><path d="M.438 6.768C.154 6.003-.051 5.222.01 4.392c.04-.511.231-.948.606-1.306.407-.384.79-.788 1.191-1.178.521-.515 1.176-.511 1.696 0 .323.316.642.638.96.96.31.31.623.619.932.931.544.55.547 1.192.003 1.739-.39.39-.778.784-1.175 1.169-.104.1-.114.185-.059.312.26.625.639 1.182 1.062 1.703.853 1.048 1.816 1.98 2.966 2.699.247.153.517.267.775.407.133.071.221.049.328-.062.388-.4.785-.794 1.182-1.188.521-.515 1.172-.518 1.693 0 .639.631 1.273 1.266 1.905 1.904.53.534.527 1.188-.007 1.726-.361.364-.742.71-1.08 1.09-.495.554-1.12.736-1.83.697-1.036-.055-1.99-.4-2.91-.846a15.84 15.84 0 01-5.252-4.11C1.916 9.752 1.024 8.352.437 6.77zm14.836 1.166c.419 0 .762-.34.723-.758A7.982 7.982 0 008.824.003c-.417-.04-.758.304-.758.723s.341.754.757.803a6.464 6.464 0 015.648 5.648c.05.416.384.757.803.757zm-3.682-.753c.086.41.418.753.836.753.42 0 .765-.342.703-.756a5.135 5.135 0 00-4.31-4.31c-.414-.061-.755.284-.755.703 0 .42.343.75.753.837a3.577 3.577 0 011.796.977c.5.5.834 1.12.977 1.796z" fill="#52BFFF"/></svg>