<svg width="12" height="12" fill="none" xmlns="http://www.w3.org/2000/svg"><g clip-path="url(#clip0)"><path d="M5.5.238C3.015.238 1 2.15 1 4.51c0 2.359 3.067 6.728 4.5 6.728 1.433 0 4.5-4.37 4.5-6.728C10 2.15 7.985.238 5.5.238zm0 6.23c-1.308 0-2.369-1.007-2.369-2.25 0-1.241 1.06-2.248 2.369-2.248 1.308 0 2.369 1.007 2.369 2.249 0 1.242-1.06 2.248-2.369 2.248z" fill="#52BFFF"/></g><defs><clipPath id="clip0"><path fill="#fff" transform="translate(0 .287)" d="M0 0h11.41v11.41H0z"/></clipPath></defs></svg>